<svg width="53" height="54" viewBox="0 0 53 54" fill="none" xmlns="http://www.w3.org/2000/svg">
    <path
        d="M52.0925 31.35C51.7076 30.9644 51.2251 30.6908 50.6966 30.5587C50.168 30.4265 49.6135 30.4408 49.0925 30.6C45.4528 31.6988 41.5832 31.7897 37.8959 30.8631C34.2086 29.9365 30.8417 28.027 28.1538 25.3382C25.466 22.6493 23.5578 19.2816 22.6326 15.594C21.7074 11.9063 21.7998 8.03677 22.9 4.39749C23.0605 3.87625 23.0758 3.32111 22.9444 2.79179C22.813 2.26247 22.5398 1.77898 22.1541 1.39333C21.7685 1.00768 21.285 0.734452 20.7557 0.603038C20.2264 0.471624 19.6712 0.486993 19.15 0.647492C13.676 2.32998 8.87219 5.69638 5.42247 10.2675C2.40573 14.2772 0.566054 19.0483 0.10987 24.0454C-0.346314 29.0424 0.599045 34.0677 2.83987 38.5574C5.0807 43.0471 8.52832 46.8236 12.7959 49.463C17.0635 52.1024 21.9821 53.5003 27 53.5C32.8584 53.5172 38.5607 51.6123 43.2325 48.0775C47.8012 44.6243 51.1641 39.8179 52.8425 34.3425C53.0002 33.8225 53.0137 33.2695 52.8816 32.7424C52.7495 32.2154 52.4768 31.7341 52.0925 31.35ZM39.6225 43.285C35.5787 46.3292 30.5716 47.8104 25.5225 47.4562C20.4734 47.1019 15.7221 44.9359 12.1431 41.3569C8.56403 37.7779 6.39808 33.0266 6.04381 27.9775C5.68954 22.9284 7.17079 17.9212 10.215 13.8775C11.8168 11.7587 13.802 9.95918 16.0675 8.57249C16.0225 9.21249 16 9.85499 16 10.5C16.0079 17.6584 18.8551 24.5213 23.9169 29.5831C28.9786 34.6449 35.8416 37.4921 43 37.5C43.645 37.5 44.2875 37.4775 44.9275 37.4325C43.5415 39.6985 41.7419 41.6838 39.6225 43.285Z"
        fill="#121414"
    />
</svg>
