<svg width="64" height="65" viewBox="0 0 64 65" fill="none" xmlns="http://www.w3.org/2000/svg">
    <path
        d="M38.8775 6.70249C38.5412 6.53861 38.1656 6.47234 37.7935 6.51123C37.4214 6.55012 37.0677 6.69261 36.7725 6.92249L19.3125 20.5H8C6.93913 20.5 5.92172 20.9214 5.17157 21.6716C4.42143 22.4217 4 23.4391 4 24.5V40.5C4 41.5609 4.42143 42.5783 5.17157 43.3284C5.92172 44.0786 6.93913 44.5 8 44.5H19.3125L36.7725 58.0775C37.068 58.3072 37.4219 58.4494 37.7942 58.4879C38.1664 58.5264 38.542 58.4597 38.8782 58.2953C39.2145 58.131 39.4978 57.8756 39.6961 57.5583C39.8944 57.2409 39.9997 56.8742 40 56.5V8.49999C40.0001 8.12531 39.8949 7.75815 39.6964 7.44035C39.4979 7.12255 39.2142 6.86688 38.8775 6.70249ZM8 24.5H18V40.5H8V24.5ZM36 52.41L22 41.5225V23.4775L36 12.59V52.41Z"
        fill="#F8FBFC"
    />
</svg>
