<svg width="64" height="65" viewBox="0 0 64 65" fill="none" xmlns="http://www.w3.org/2000/svg">
<path d="M32 6.5C26.8577 6.5 21.8309 8.02487 17.5552 10.8818C13.2795 13.7387 9.94702 17.7994 7.97914 22.5502C6.01127 27.3011 5.49638 32.5288 6.49959 37.5723C7.50281 42.6159 9.97907 47.2486 13.6152 50.8848C17.2514 54.5209 21.8842 56.9972 26.9277 58.0004C31.9712 59.0036 37.1989 58.4887 41.9498 56.5209C46.7007 54.553 50.7613 51.2205 53.6182 46.9448C56.4751 42.6691 58 37.6423 58 32.5C57.9927 25.6066 55.2511 18.9976 50.3767 14.1233C45.5024 9.24889 38.8934 6.50728 32 6.5ZM32 54.5C27.6488 54.5 23.3953 53.2097 19.7775 50.7923C16.1596 48.3749 13.3398 44.939 11.6747 40.919C10.0095 36.8991 9.57386 32.4756 10.4227 28.208C11.2716 23.9404 13.3669 20.0204 16.4437 16.9437C19.5204 13.8669 23.4404 11.7716 27.708 10.9227C31.9756 10.0738 36.3991 10.5095 40.419 12.1747C44.439 13.8398 47.875 16.6596 50.2923 20.2775C52.7097 23.8953 54 28.1488 54 32.5C53.9934 38.3327 51.6734 43.9247 47.5491 48.049C43.4247 52.1734 37.8327 54.4934 32 54.5ZM28 24.5V40.5C28 41.0304 27.7893 41.5391 27.4142 41.9142C27.0392 42.2893 26.5304 42.5 26 42.5C25.4696 42.5 24.9609 42.2893 24.5858 41.9142C24.2107 41.5391 24 41.0304 24 40.5V24.5C24 23.9696 24.2107 23.4609 24.5858 23.0858C24.9609 22.7107 25.4696 22.5 26 22.5C26.5304 22.5 27.0392 22.7107 27.4142 23.0858C27.7893 23.4609 28 23.9696 28 24.5ZM40 24.5V40.5C40 41.0304 39.7893 41.5391 39.4142 41.9142C39.0392 42.2893 38.5304 42.5 38 42.5C37.4696 42.5 36.9609 42.2893 36.5858 41.9142C36.2107 41.5391 36 41.0304 36 40.5V24.5C36 23.9696 36.2107 23.4609 36.5858 23.0858C36.9609 22.7107 37.4696 22.5 38 22.5C38.5304 22.5 39.0392 22.7107 39.4142 23.0858C39.7893 23.4609 40 23.9696 40 24.5Z" fill="#007ACC"/>
</svg>
