<svg width="64" height="65" viewBox="0 0 64 65" fill="#007ACC" xmlns="http://www.w3.org/2000/svg">
    <path
        d="M38.8775 6.70249C38.5412 6.53861 38.1656 6.47234 37.7935 6.51123C37.4214 6.55012 37.0677 6.69261 36.7725 6.92249L19.3125 20.5H8C6.93913 20.5 5.92172 20.9214 5.17157 21.6716C4.42143 22.4217 4 23.4391 4 24.5V40.5C4 41.5609 4.42143 42.5783 5.17157 43.3284C5.92172 44.0786 6.93913 44.5 8 44.5H19.3125L36.7725 58.0775C37.068 58.3072 37.4219 58.4494 37.7942 58.4879C38.1664 58.5264 38.542 58.4597 38.8782 58.2953C39.2145 58.131 39.4978 57.8756 39.6961 57.5583C39.8944 57.2409 39.9997 56.8742 40 56.5V8.49999C40.0001 8.12531 39.8949 7.75815 39.6964 7.44035C39.4979 7.12255 39.2142 6.86688 38.8775 6.70249ZM8 24.5H18V40.5H8V24.5ZM36 52.41L22 41.5225V23.4775L36 12.59V52.41ZM49.5 25.89C51.1087 27.7162 51.9961 30.0663 51.9961 32.5C51.9961 34.9337 51.1087 37.2838 49.5 39.11C49.1467 39.4982 48.6548 39.732 48.1306 39.7608C47.6065 39.7896 47.092 39.6112 46.6982 39.264C46.3044 38.9169 46.0629 38.4288 46.0258 37.9051C45.9888 37.3814 46.1591 36.8642 46.5 36.465C47.4646 35.3694 47.9968 33.9597 47.9968 32.5C47.9968 31.0403 47.4646 29.6306 46.5 28.535C46.1591 28.1358 45.9888 27.6185 46.0258 27.0949C46.0629 26.5712 46.3044 26.0831 46.6982 25.736C47.092 25.3888 47.6065 25.2103 48.1306 25.2392C48.6548 25.268 49.1467 25.5017 49.5 25.89ZM62 32.5C62.0029 37.4205 60.1895 42.1689 56.9075 45.835C56.5512 46.2205 56.0577 46.4505 55.5333 46.4753C55.009 46.5001 54.4959 46.3178 54.1048 45.9677C53.7137 45.6176 53.4759 45.1278 53.4427 44.6039C53.4095 44.08 53.5837 43.5641 53.9275 43.1675C56.551 40.2341 58.0014 36.4367 58.0014 32.5012C58.0014 28.5658 56.551 24.7684 53.9275 21.835C53.7474 21.6401 53.6079 21.4114 53.5171 21.1621C53.4263 20.9128 53.386 20.648 53.3985 20.3829C53.4111 20.1179 53.4762 19.858 53.5902 19.6184C53.7042 19.3788 53.8647 19.1643 54.0624 18.9874C54.2601 18.8104 54.491 18.6746 54.7417 18.5877C54.9924 18.5009 55.2579 18.4648 55.5227 18.4815C55.7875 18.4983 56.0463 18.5676 56.284 18.6854C56.5218 18.8031 56.7337 18.967 56.9075 19.1675C60.1903 22.832 62.0039 27.58 62 32.5Z"
        fill="#007ACC"
    />
    <path
        d="M38.8775 6.70249C38.5412 6.53861 38.1656 6.47234 37.7935 6.51123C37.4214 6.55012 37.0677 6.69261 36.7725 6.92249L19.3125 20.5H8C6.93913 20.5 5.92172 20.9214 5.17157 21.6716C4.42143 22.4217 4 23.4391 4 24.5V40.5C4 41.5609 4.42143 42.5783 5.17157 43.3284C5.92172 44.0786 6.93913 44.5 8 44.5H19.3125L36.7725 58.0775C37.068 58.3072 37.4219 58.4494 37.7942 58.4879C38.1664 58.5264 38.542 58.4597 38.8782 58.2953C39.2145 58.131 39.4978 57.8756 39.6961 57.5583C39.8944 57.2409 39.9997 56.8742 40 56.5V8.49999C40.0001 8.12531 39.8949 7.75815 39.6964 7.44035C39.4979 7.12255 39.2142 6.86688 38.8775 6.70249ZM8 24.5H18V40.5H8V24.5ZM36 52.41L22 41.5225V23.4775L36 12.59V52.41ZM49.5 25.89C51.1087 27.7162 51.9961 30.0663 51.9961 32.5C51.9961 34.9337 51.1087 37.2838 49.5 39.11C49.1467 39.4982 48.6548 39.732 48.1306 39.7608C47.6065 39.7896 47.092 39.6112 46.6982 39.264C46.3044 38.9169 46.0629 38.4288 46.0258 37.9051C45.9888 37.3814 46.1591 36.8642 46.5 36.465C47.4646 35.3694 47.9968 33.9597 47.9968 32.5C47.9968 31.0403 47.4646 29.6306 46.5 28.535C46.1591 28.1358 45.9888 27.6185 46.0258 27.0949C46.0629 26.5712 46.3044 26.0831 46.6982 25.736C47.092 25.3888 47.6065 25.2103 48.1306 25.2392C48.6548 25.268 49.1467 25.5017 49.5 25.89ZM62 32.5C62.0029 37.4205 60.1895 42.1689 56.9075 45.835C56.5512 46.2205 56.0577 46.4505 55.5333 46.4753C55.009 46.5001 54.4959 46.3178 54.1048 45.9677C53.7137 45.6176 53.4759 45.1278 53.4427 44.6039C53.4095 44.08 53.5837 43.5641 53.9275 43.1675C56.551 40.2341 58.0014 36.4367 58.0014 32.5012C58.0014 28.5658 56.551 24.7684 53.9275 21.835C53.7474 21.6401 53.6079 21.4114 53.5171 21.1621C53.4263 20.9128 53.386 20.648 53.3985 20.3829C53.4111 20.1179 53.4762 19.858 53.5902 19.6184C53.7042 19.3788 53.8647 19.1643 54.0624 18.9874C54.2601 18.8104 54.491 18.6746 54.7417 18.5877C54.9924 18.5009 55.2579 18.4648 55.5227 18.4815C55.7875 18.4983 56.0463 18.5676 56.284 18.6854C56.5218 18.8031 56.7337 18.967 56.9075 19.1675C60.1903 22.832 62.0039 27.58 62 32.5Z"
        fill="#007ACC"
    />
</svg>
