<svg width="64" height="65" viewBox="0 0 64 65" fill="none" xmlns="http://www.w3.org/2000/svg">
<path d="M29 8.5V4.5C29 3.70435 29.3161 2.94129 29.8787 2.37868C30.4413 1.81607 31.2044 1.5 32 1.5C32.7956 1.5 33.5587 1.81607 34.1213 2.37868C34.6839 2.94129 35 3.70435 35 4.5V8.5C35 9.29565 34.6839 10.0587 34.1213 10.6213C33.5587 11.1839 32.7956 11.5 32 11.5C31.2044 11.5 30.4413 11.1839 29.8787 10.6213C29.3161 10.0587 29 9.29565 29 8.5ZM49 32.5C49 35.8623 48.003 39.1491 46.135 41.9447C44.267 44.7403 41.612 46.9193 38.5056 48.206C35.3993 49.4926 31.9811 49.8293 28.6835 49.1734C25.3858 48.5174 22.3567 46.8983 19.9792 44.5208C17.6017 42.1433 15.9826 39.1142 15.3267 35.8165C14.6707 32.5189 15.0074 29.1007 16.294 25.9944C17.5807 22.888 19.7597 20.233 22.5553 18.365C25.3509 16.497 28.6377 15.5 32 15.5C36.5073 15.5046 40.8286 17.2972 44.0157 20.4843C47.2028 23.6714 48.9954 27.9927 49 32.5ZM43 32.5C43 30.3244 42.3549 28.1977 41.1462 26.3887C39.9375 24.5798 38.2195 23.1699 36.2095 22.3373C34.1995 21.5048 31.9878 21.2869 29.854 21.7114C27.7202 22.1358 25.7602 23.1834 24.2218 24.7218C22.6834 26.2602 21.6358 28.2202 21.2114 30.354C20.7869 32.4878 21.0048 34.6995 21.8373 36.7095C22.6699 38.7195 24.0798 40.4375 25.8887 41.6462C27.6977 42.8549 29.8244 43.5 32 43.5C34.9164 43.4967 37.7123 42.3367 39.7745 40.2745C41.8367 38.2123 42.9967 35.4164 43 32.5ZM12.8775 17.6225C13.1566 17.9016 13.4879 18.1229 13.8525 18.2739C14.2171 18.425 14.6079 18.5027 15.0025 18.5027C15.3971 18.5027 15.7879 18.425 16.1525 18.2739C16.5171 18.1229 16.8484 17.9016 17.1275 17.6225C17.4066 17.3434 17.6279 17.0121 17.7789 16.6475C17.93 16.2829 18.0077 15.8921 18.0077 15.4975C18.0077 15.1029 17.93 14.7121 17.7789 14.3475C17.6279 13.9829 17.4066 13.6516 17.1275 13.3725L14.1275 10.3725C13.5639 9.80892 12.7995 9.4923 12.0025 9.4923C11.2055 9.4923 10.4411 9.80892 9.8775 10.3725C9.31391 10.9361 8.9973 11.7005 8.9973 12.4975C8.9973 13.2945 9.31391 14.0589 9.8775 14.6225L12.8775 17.6225ZM12.8775 47.3725L9.8775 50.3725C9.59844 50.6516 9.37708 50.9828 9.22605 51.3475C9.07503 51.7121 8.9973 52.1029 8.9973 52.4975C8.9973 52.8922 9.07503 53.2829 9.22605 53.6475C9.37708 54.0121 9.59844 54.3434 9.8775 54.6225C10.4411 55.1861 11.2055 55.5027 12.0025 55.5027C12.3971 55.5027 12.7879 55.425 13.1525 55.2739C13.5171 55.1229 13.8484 54.9016 14.1275 54.6225L17.1275 51.6225C17.6911 51.0589 18.0077 50.2945 18.0077 49.4975C18.0077 48.7005 17.6911 47.9361 17.1275 47.3725C16.5639 46.8089 15.7995 46.4923 15.0025 46.4923C14.2055 46.4923 13.4411 46.8089 12.8775 47.3725ZM49 18.5C49.3941 18.5003 49.7844 18.423 50.1485 18.2724C50.5127 18.1218 50.8437 17.901 51.1225 17.6225L54.1225 14.6225C54.4016 14.3434 54.6229 14.0121 54.7739 13.6475C54.925 13.2829 55.0027 12.8921 55.0027 12.4975C55.0027 12.1029 54.925 11.7121 54.7739 11.3475C54.6229 10.9829 54.4016 10.6516 54.1225 10.3725C53.8434 10.0934 53.5121 9.87208 53.1475 9.72105C52.7829 9.57003 52.3922 9.4923 51.9975 9.4923C51.6029 9.4923 51.2121 9.57003 50.8475 9.72105C50.4828 9.87208 50.1516 10.0934 49.8725 10.3725L46.8725 13.3725C46.4504 13.7921 46.1627 14.3278 46.0459 14.9113C45.9291 15.4949 45.9886 16.1 46.2167 16.6497C46.4447 17.1995 46.8312 17.6689 47.3268 17.9984C47.8224 18.3278 48.4049 18.5025 49 18.5ZM51.1225 47.3775C50.5589 46.8139 49.7945 46.4973 48.9975 46.4973C48.2005 46.4973 47.4361 46.8139 46.8725 47.3775C46.3089 47.9411 45.9923 48.7055 45.9923 49.5025C45.9923 50.2995 46.3089 51.0639 46.8725 51.6275L49.8725 54.6275C50.4361 55.1911 51.2005 55.5077 51.9975 55.5077C52.7945 55.5077 53.5589 55.1911 54.1225 54.6275C54.6861 54.0639 55.0027 53.2995 55.0027 52.5025C55.0027 51.7055 54.6861 50.9411 54.1225 50.3775L51.1225 47.3775ZM11 32.5C11 31.7044 10.6839 30.9413 10.1213 30.3787C9.55871 29.8161 8.79565 29.5 8 29.5H4C3.20435 29.5 2.44129 29.8161 1.87868 30.3787C1.31607 30.9413 1 31.7044 1 32.5C1 33.2956 1.31607 34.0587 1.87868 34.6213C2.44129 35.1839 3.20435 35.5 4 35.5H8C8.79565 35.5 9.55871 35.1839 10.1213 34.6213C10.6839 34.0587 11 33.2956 11 32.5ZM32 53.5C31.2044 53.5 30.4413 53.8161 29.8787 54.3787C29.3161 54.9413 29 55.7043 29 56.5V60.5C29 61.2957 29.3161 62.0587 29.8787 62.6213C30.4413 63.1839 31.2044 63.5 32 63.5C32.7956 63.5 33.5587 63.1839 34.1213 62.6213C34.6839 62.0587 35 61.2957 35 60.5V56.5C35 55.7043 34.6839 54.9413 34.1213 54.3787C33.5587 53.8161 32.7956 53.5 32 53.5ZM60 29.5H56C55.2043 29.5 54.4413 29.8161 53.8787 30.3787C53.3161 30.9413 53 31.7044 53 32.5C53 33.2956 53.3161 34.0587 53.8787 34.6213C54.4413 35.1839 55.2043 35.5 56 35.5H60C60.7957 35.5 61.5587 35.1839 62.1213 34.6213C62.6839 34.0587 63 33.2956 63 32.5C63 31.7044 62.6839 30.9413 62.1213 30.3787C61.5587 29.8161 60.7957 29.5 60 29.5Z" fill="#F8F8FC"/>
</svg>
